HIERARCHY
ROOT Hips
{
	OFFSET	0.000000	0.000000	0.000000
	CHANNELS	6	Xposition	Yposition	Zposition	Zrotation	Xrotation	Yrotation
	JOINT LeftHip
	{
		OFFSET	15.500000	-8.200000	0.000000
		CHANNELS	3	Zrotation	Xrotation	Yrotation
		JOINT LeftKnee
		{
			OFFSET	0.000000	-41.000000	0.000000
			CHANNELS	3	Zrotation	Xrotation	Yrotation
			JOINT LeftAnkle
			{
				OFFSET	0.000000	-41.500000	0.000000
				CHANNELS	3	Zrotation	Xrotation	Yrotation
				End Site
				{
					OFFSET	0.000000	0.000000	22.875000
				}
			}
		}
	}
	JOINT RightHip
	{
		OFFSET	-15.500000	-8.200000	0.000000
		CHANNELS	3	Zrotation	Xrotation	Yrotation
		JOINT RightKnee
		{
			OFFSET	0.000000	-41.000000	0.000000
			CHANNELS	3	Zrotation	Xrotation	Yrotation
			JOINT RightAnkle
			{
				OFFSET	0.000000	-41.500000	0.000000
				CHANNELS	3	Zrotation	Xrotation	Yrotation
				End Site
				{
					OFFSET	0.000000	0.000000	22.875000
				}
			}
		}
	}
	JOINT Chest
	{
		OFFSET	0.000000	16.666667	0.000000
		CHANNELS	3	Zrotation	Xrotation	Yrotation
		JOINT LeftCollar
		{
			OFFSET	4.625000	33.333333	1.541667
			CHANNELS	3	Zrotation	Xrotation	Yrotation
			JOINT LeftShoulder
			{
				OFFSET	13.875000	0.000000	0.000000
				CHANNELS	3	Zrotation	Xrotation	Yrotation
				JOINT LeftElbow
				{
					OFFSET	0.000000	-28.000000	0.000000
					CHANNELS	3	Zrotation	Xrotation	Yrotation
					JOINT LeftWrist
					{
						OFFSET	0.000000	-25.000000	0.000000
						CHANNELS	3	Zrotation	Xrotation	Yrotation
						End Site
						{
							OFFSET	0.000000	-7.500000	0.000000
						}
					}
				}
			}
		}
		JOINT RightCollar
		{
			OFFSET	-4.625000	33.333333	1.541667
			CHANNELS	3	Zrotation	Xrotation	Yrotation
			JOINT RightShoulder
			{
				OFFSET	-13.875000	0.000000	0.000000
				CHANNELS	3	Zrotation	Xrotation	Yrotation
				JOINT RightElbow
				{
					OFFSET	0.000000	-28.000000	0.000000
					CHANNELS	3	Zrotation	Xrotation	Yrotation
					JOINT RightWrist
					{
						OFFSET	0.000000	-25.000000	0.000000
						CHANNELS	3	Zrotation	Xrotation	Yrotation
						End Site
						{
							OFFSET	0.000000	-7.500000	0.000000
						}
					}
				}
			}
		}
		JOINT Neck
		{
			OFFSET	0.000000	33.333333	0.000000
			CHANNELS	3	Zrotation	Xrotation	Yrotation
			JOINT Head
			{
				OFFSET	0.000000	12.000000	0.000000
				CHANNELS	3	Zrotation	Xrotation	Yrotation
				End Site
				{
					OFFSET	0.000000	15.000000	0.000000
				}
			}
		}
	}
}
MOTION
Frames:	12
Frame Time:	0.012000
0.58	102.37	-66.64	0.25	1.19	0.31	1.05	-5.61	-2.46	0.00	3.93	0.00	-0.40	28.80	0.36	-0.47	-6.59	2.91	0.00	2.91	0.00	0.48	28.72	-1.20	0.50	-1.83	1.40	0.00	0.00	0.00	123.40	-86.95	122.16	0.63	-0.31	0.00	0.38	0.23	0.00	0.00	0.00	0.00	154.46	-85.68	151.93	-1.90	-0.21	-1.30	-0.23	-0.07	0.00	0.00	0.00	0.00	-0.76	0.06	-2.00
0.59	102.37	-66.61	0.24	1.21	0.29	1.05	-5.60	-2.44	0.00	3.94	0.00	-0.40	28.83	0.35	-0.47	-6.56	2.88	0.00	2.91	0.00	0.49	28.78	-1.18	0.49	-1.84	1.40	0.00	0.00	0.00	122.78	-86.93	121.56	0.61	-0.36	-0.06	0.39	0.23	0.00	0.00	0.00	0.00	154.68	-85.65	152.13	-1.90	-0.20	-1.30	-0.23	-0.08	0.00	0.00	0.00	0.00	-0.73	0.13	-2.05
0.62	102.37	-66.50	0.24	1.21	0.29	1.05	-5.58	-2.44	0.00	3.92	0.00	-0.40	28.84	0.35	-0.48	-6.54	2.87	0.00	2.91	0.00	0.48	28.78	-1.19	0.49	-1.84	1.41	0.00	0.00	0.00	123.06	-86.91	121.87	0.61	-0.35	-0.07	0.40	0.23	0.00	0.00	0.00	0.00	154.93	-85.63	152.36	-1.90	-0.16	-1.27	-0.23	-0.07	0.00	0.00	0.00	0.00	-0.73	0.14	-2.06
0.63	102.37	-66.47	0.24	1.21	0.29	1.05	-5.57	-2.43	0.00	3.91	0.00	-0.41	28.83	0.35	-0.49	-6.51	2.87	0.00	2.91	0.00	0.49	28.76	-1.17	0.49	-1.84	1.41	0.00	0.00	0.00	123.23	-86.86	122.00	0.60	-0.35	-0.06	0.40	0.23	0.00	0.00	0.00	0.00	155.07	-85.65	152.47	-1.88	-0.16	-1.23	-0.22	-0.06	0.00	0.00	0.00	0.00	-0.73	0.14	-2.06
0.65	102.36	-66.42	0.27	1.24	0.26	1.06	-5.55	-2.43	0.00	3.88	0.00	-0.39	28.86	0.32	-0.50	-6.49	2.84	0.00	2.93	0.00	0.45	28.78	-1.12	0.47	-1.83	1.42	0.00	0.00	0.00	123.24	-86.84	122.04	0.61	-0.36	-0.04	0.39	0.24	0.00	0.00	0.00	0.00	155.10	-85.65	152.50	-1.87	-0.16	-1.21	-0.20	-0.06	0.00	0.00	0.00	0.00	-0.74	0.16	-2.09
0.62	102.36	-66.30	0.27	1.24	0.26	1.06	-5.53	-2.43	0.00	3.85	0.00	-0.40	28.88	0.33	-0.50	-6.47	2.84	0.00	2.93	0.00	0.45	28.80	-1.11	0.49	-1.82	1.42	0.00	0.00	0.00	123.26	-86.83	122.04	0.63	-0.35	0.01	0.37	0.24	0.00	0.00	0.00	0.00	155.25	-85.64	152.61	-1.87	-0.15	-1.20	-0.18	-0.04	0.00	0.00	0.00	0.00	-0.76	0.15	-2.09
0.63	102.36	-66.26	0.27	1.24	0.26	1.07	-5.52	-2.41	0.00	3.83	0.00	-0.40	28.92	0.34	-0.51	-6.44	2.83	0.00	2.94	0.00	0.46	28.78	-1.09	0.48	-1.81	1.44	0.00	0.00	0.00	123.16	-86.81	121.93	0.63	-0.37	0.03	0.35	0.24	0.00	0.00	0.00	0.00	155.38	-85.62	152.73	-1.86	-0.15	-1.17	-0.17	-0.03	0.00	0.00	0.00	0.00	-0.75	0.15	-2.10
0.65	102.36	-66.21	0.28	1.28	0.26	1.07	-5.50	-2.41	0.00	3.80	0.00	-0.42	28.93	0.38	-0.52	-6.43	2.83	0.00	2.94	0.00	0.46	28.77	-1.08	0.48	-1.81	1.44	0.00	0.00	0.00	122.79	-86.76	121.55	0.60	-0.42	-0.01	0.33	0.24	0.00	0.00	0.00	0.00	155.41	-85.60	152.74	-1.85	-0.16	-1.15	-0.17	-0.03	0.00	0.00	0.00	0.00	-0.82	0.16	-2.10
0.65	102.36	-66.11	0.28	1.28	0.26	1.07	-5.50	-2.41	0.00	3.80	0.00	-0.40	28.95	0.37	-0.53	-6.39	2.81	0.00	2.94	0.00	0.45	28.77	-1.04	0.48	-1.80	1.46	0.00	0.00	0.00	122.74	-86.73	121.49	0.60	-0.42	0.00	0.31	0.24	0.00	0.00	0.00	0.00	155.08	-85.50	152.41	-1.86	-0.17	-1.14	-0.16	-0.03	0.00	0.00	0.00	0.00	-0.82	0.15	-2.11
0.66	102.35	-66.06	0.28	1.28	0.26	1.08	-5.48	-2.39	0.00	3.77	0.00	-0.40	28.96	0.38	-0.53	-6.38	2.80	0.00	2.97	0.00	0.43	28.83	-1.07	0.47	-1.80	1.47	0.00	0.00	0.00	123.05	-86.71	121.78	0.60	-0.41	0.01	0.29	0.25	0.00	0.00	0.00	0.00	155.17	-85.48	152.48	-1.86	-0.17	-1.14	-0.15	-0.03	0.00	0.00	0.00	0.00	-0.82	0.15	-2.12
0.67	102.35	-65.99	0.28	1.34	0.24	1.07	-5.43	-2.36	0.00	3.75	0.00	-0.39	29.03	0.38	-0.55	-6.38	2.82	0.00	2.99	0.00	0.43	28.83	-1.08	0.48	-1.80	1.49	0.00	0.00	0.00	123.09	-86.67	121.79	0.61	-0.41	0.03	0.34	0.30	0.00	0.00	0.00	0.00	155.22	-85.46	152.50	-1.85	-0.19	-1.16	-0.14	-0.03	0.00	0.00	0.00	0.00	-0.88	0.11	-2.10
0.69	102.35	-65.87	0.28	1.34	0.24	1.07	-5.45	-2.34	0.00	3.79	0.00	-0.39	29.04	0.40	-0.56	-6.38	2.83	0.00	3.00	0.00	0.41	28.85	-1.09	0.49	-1.80	1.51	0.00	0.00	0.00	123.16	-86.61	121.83	0.59	-0.42	0.01	0.32	0.31	0.00	0.00	0.00	0.00	155.13	-85.42	152.38	-1.85	-0.20	-1.16	-0.15	-0.03	0.00	0.00	0.00	0.00	-0.89	0.12	-2.12
